<?xml version="1.0" standalone="no"?>
<!DOCTYPE svg PUBLIC "-//W3C//DTD SVG 20010904//EN"
 "http://www.w3.org/TR/2001/REC-SVG-20010904/DTD/svg10.dtd">
<svg version="1.0" xmlns="http://www.w3.org/2000/svg"
 width="175.000000pt" height="175.000000pt" viewBox="0 0 175.000000 175.000000"
 preserveAspectRatio="xMidYMid meet">

<g transform="translate(0.000000,175.000000) scale(0.100000,-0.100000)"
fill="#000000" stroke="none">
<path d="M891 1639 c-6 -13 -21 -71 -35 -129 -71 -297 -128 -528 -135 -550 -5
-14 -19 -58 -31 -98 -20 -64 -29 -77 -74 -114 -124 -102 -251 -257 -309 -379
-41 -84 -46 -132 -21 -185 19 -40 44 -49 117 -41 47 4 56 9 107 63 77 82 186
301 270 539 34 97 55 127 111 155 57 30 79 -1 79 -114 0 -59 -9 -107 -46 -233
-70 -240 -66 -331 18 -386 36 -23 52 -27 119 -27 62 0 81 4 103 21 35 28 51
58 37 72 -7 7 -21 0 -46 -22 -47 -41 -94 -43 -124 -5 -30 38 -27 115 8 238 16
55 34 125 40 154 27 129 3 258 -61 325 -21 22 -38 43 -37 46 0 3 32 29 70 56
39 28 76 55 82 60 7 6 39 33 72 60 33 28 65 55 71 60 81 74 112 105 158 159
58 69 86 114 86 141 0 26 -29 13 -48 -20 -29 -50 -34 -56 -152 -175 -63 -64
-178 -164 -255 -223 -77 -59 -148 -114 -158 -122 -9 -8 -22 -15 -27 -15 -6 0
-10 -4 -10 -10 0 -5 -7 -10 -16 -10 -11 0 -14 5 -9 18 30 77 175 623 175 662
0 22 -29 37 -87 47 -27 5 -34 2 -42 -18z m-286 -1021 c-131 -355 -189 -452
-260 -434 -75 19 -16 190 123 355 66 77 153 163 160 157 2 -3 -8 -38 -23 -78z"/>
</g>
</svg>
